solid b'STLEXP Object01\x00\x00\x00\x00\x00\x00\x00\x00\x00\x00\x00\x00\x00\x00\x00\x00\x00\x00\x00\x00\x00\x00\x00\x00\x00\x00\x00\x00\x00\x00\x00\x00\x00\x00\x00\x00\x00\x00\x00\x00\x00\x00\x00\x00\x00\x00\x00\x00\x00\x00\x00\x00\x00\x00\x00\x00\x00\x00\x00\x00\x00\x00\x00\x00\x00'
facet normal 0.0 -0.030248547 0.0
  outer loop
    vertex 0.95105714 0.0039993525 -0.30901718
    vertex 1.0 0.0039993525 0.0
    vertex 0.95105654 0.0039993525 0.309017
  endloop
endfacet
facet normal 0.0 -0.030248746 0.0
  outer loop
    vertex 0.95105654 0.0039993525 0.309017
    vertex 0.809017 0.0039993525 0.5877853
    vertex 0.58778524 0.0039993525 0.80901706
  endloop
endfacet
facet normal 0.0 -0.030248731 0.0
  outer loop
    vertex 0.58778524 0.0039993525 0.80901706
    vertex 0.30901697 0.0039993525 0.9510566
    vertex -2.9802322e-08 0.0039993525 1.0000001
  endloop
endfacet
facet normal 0.0 -0.03024875 0.0
  outer loop
    vertex -2.9802322e-08 0.0039993525 1.0000001
    vertex -0.30901706 0.0039993525 0.95105666
    vertex -0.58778536 0.0039993525 0.8090171
  endloop
endfacet
facet normal 0.0 -0.030248746 0.0
  outer loop
    vertex -0.58778536 0.0039993525 0.8090171
    vertex -0.8090172 0.0039993525 0.58778536
    vertex -0.9510568 0.0039993525 0.30901706
  endloop
endfacet
facet normal 0.0 -0.030248728 -0.0
  outer loop
    vertex -0.9510568 0.0039993525 0.30901706
    vertex -1.0000002 0.0039993525 0.0
    vertex -0.9510568 0.0039993525 -0.30901706
  endloop
endfacet
facet normal 0.0 -0.030248739 0.0
  outer loop
    vertex -0.9510568 0.0039993525 -0.30901706
    vertex -0.80901724 0.0039993525 -0.5877854
    vertex -0.5877855 0.0039993525 -0.8090173
  endloop
endfacet
facet normal 0.0 -0.030248791 0.0
  outer loop
    vertex -0.5877855 0.0039993525 -0.8090173
    vertex -0.30901715 0.0039993525 -0.95105696
    vertex 0.0 0.0039993525 -1.0000005
  endloop
endfacet
facet normal 0.0 -0.03024876 0.0
  outer loop
    vertex 0.0 0.0039993525 -1.0000005
    vertex 0.30901715 0.0039993525 -0.951057
    vertex 0.5877856 0.0039993525 -0.8090175
  endloop
endfacet
facet normal 0.0 -0.030248791 0.0
  outer loop
    vertex 0.5877856 0.0039993525 -0.8090175
    vertex 0.80901754 0.0039993525 -0.5877856
    vertex 0.95105714 0.0039993525 -0.30901718
  endloop
endfacet
facet normal 0.5575368 0.3090174 -0.28407916
  outer loop
    vertex 0.95105714 0.0039993525 -0.30901718
    vertex 0.80901754 0.0039993525 -0.5877856
    vertex 0.0 2.0039992 0.0
  endloop
endfacet
facet normal 0.44246373 0.30901742 -0.44246385
  outer loop
    vertex 0.80901754 0.0039993525 -0.5877856
    vertex 0.5877856 0.0039993525 -0.8090175
    vertex 0.0 2.0039992 0.0
  endloop
endfacet
facet normal 0.28407905 0.30901736 -0.55753684
  outer loop
    vertex 0.5877856 0.0039993525 -0.8090175
    vertex 0.30901715 0.0039993525 -0.951057
    vertex 0.0 2.0039992 0.0
  endloop
endfacet
facet normal 0.09788691 0.3090173 -0.61803424
  outer loop
    vertex 0.30901715 0.0039993525 -0.951057
    vertex 0.0 0.0039993525 -1.0000005
    vertex 0.0 2.0039992 0.0
  endloop
endfacet
facet normal -0.09788703 0.3090173 -0.61803424
  outer loop
    vertex 0.0 0.0039993525 -1.0000005
    vertex -0.30901715 0.0039993525 -0.95105696
    vertex 0.0 2.0039992 0.0
  endloop
endfacet
facet normal -0.28407928 0.30901724 -0.5575366
  outer loop
    vertex -0.30901715 0.0039993525 -0.95105696
    vertex -0.5877855 0.0039993525 -0.8090173
    vertex 0.0 2.0039992 0.0
  endloop
endfacet
facet normal -0.44246373 0.3090172 -0.4424635
  outer loop
    vertex -0.5877855 0.0039993525 -0.8090173
    vertex -0.80901724 0.0039993525 -0.5877854
    vertex 0.0 2.0039992 0.0
  endloop
endfacet
facet normal -0.55753666 0.30901718 -0.28407905
  outer loop
    vertex -0.80901724 0.0039993525 -0.5877854
    vertex -0.9510568 0.0039993525 -0.30901706
    vertex 0.0 2.0039992 0.0
  endloop
endfacet
facet normal -0.61803406 0.30901712 -0.09788691
  outer loop
    vertex -0.9510568 0.0039993525 -0.30901706
    vertex -1.0000002 0.0039993525 0.0
    vertex 0.0 2.0039992 0.0
  endloop
endfacet
facet normal -0.61803406 0.30901712 0.09788691
  outer loop
    vertex -1.0000002 0.0039993525 0.0
    vertex -0.9510568 0.0039993525 0.30901706
    vertex 0.0 2.0039992 0.0
  endloop
endfacet
facet normal -0.55753654 0.30901712 0.28407916
  outer loop
    vertex -0.9510568 0.0039993525 0.30901706
    vertex -0.8090172 0.0039993525 0.58778536
    vertex 0.0 2.0039992 0.0
  endloop
endfacet
facet normal -0.4424635 0.30901712 0.4424636
  outer loop
    vertex -0.8090172 0.0039993525 0.58778536
    vertex -0.58778536 0.0039993525 0.8090171
    vertex 0.0 2.0039992 0.0
  endloop
endfacet
facet normal -0.28407905 0.3090171 0.55753654
  outer loop
    vertex -0.58778536 0.0039993525 0.8090171
    vertex -0.30901706 0.0039993525 0.95105666
    vertex 0.0 2.0039992 0.0
  endloop
endfacet
facet normal -0.09788691 0.30901706 0.618034
  outer loop
    vertex -0.30901706 0.0039993525 0.95105666
    vertex -2.9802322e-08 0.0039993525 1.0000001
    vertex 0.0 2.0039992 0.0
  endloop
endfacet
facet normal 0.09788703 0.30901703 0.61803395
  outer loop
    vertex -2.9802322e-08 0.0039993525 1.0000001
    vertex 0.30901697 0.0039993525 0.9510566
    vertex 0.0 2.0039992 0.0
  endloop
endfacet
facet normal 0.28407905 0.30901703 0.5575365
  outer loop
    vertex 0.30901697 0.0039993525 0.9510566
    vertex 0.58778524 0.0039993525 0.80901706
    vertex 0.0 2.0039992 0.0
  endloop
endfacet
facet normal 0.4424635 0.309017 0.4424635
  outer loop
    vertex 0.58778524 0.0039993525 0.80901706
    vertex 0.809017 0.0039993525 0.5877853
    vertex 0.0 2.0039992 0.0
  endloop
endfacet
facet normal 0.55753654 0.30901706 0.28407905
  outer loop
    vertex 0.809017 0.0039993525 0.5877853
    vertex 0.95105654 0.0039993525 0.309017
    vertex 0.0 2.0039992 0.0
  endloop
endfacet
facet normal 0.61803395 0.309017 0.09788691
  outer loop
    vertex 0.95105654 0.0039993525 0.309017
    vertex 1.0 0.0039993525 0.0
    vertex 0.0 2.0039992 0.0
  endloop
endfacet
facet normal 0.6180343 0.30901718 -0.09788572
  outer loop
    vertex 1.0 0.0039993525 0.0
    vertex 0.95105714 0.0039993525 -0.30901718
    vertex 0.0 2.0039992 0.0
  endloop
endfacet
endsolid b'STLEXP Object01\x00\x00\x00\x00\x00\x00\x00\x00\x00\x00\x00\x00\x00\x00\x00\x00\x00\x00\x00\x00\x00\x00\x00\x00\x00\x00\x00\x00\x00\x00\x00\x00\x00\x00\x00\x00\x00\x00\x00\x00\x00\x00\x00\x00\x00\x00\x00\x00\x00\x00\x00\x00\x00\x00\x00\x00\x00\x00\x00\x00\x00\x00\x00\x00\x00'
